<svg xmlns="http://www.w3.org/2000/svg" xmlns:xlink="http://www.w3.org/1999/xlink" width="40" zoomAndPan="magnify" viewBox="0 0 30 30.000001" height="40" preserveAspectRatio="xMidYMid meet" version="1.2"><defs><clipPath id="af71277f00"><path d="M 0.484375 5.921875 L 17.589844 5.921875 L 17.589844 23.109375 L 0.484375 23.109375 Z M 0.484375 5.921875 "/></clipPath><clipPath id="a896d8829c"><path d="M 8.992188 5.921875 C 4.246094 5.921875 0.398438 9.769531 0.398438 14.515625 C 0.398438 19.261719 4.246094 23.109375 8.992188 23.109375 C 13.738281 23.109375 17.589844 19.261719 17.589844 14.515625 C 17.589844 9.769531 13.738281 5.921875 8.992188 5.921875 Z M 8.992188 5.921875 "/></clipPath><clipPath id="5acc0d6421"><path d="M 0.484375 0.921875 L 17.589844 0.921875 L 17.589844 18.109375 L 0.484375 18.109375 Z M 0.484375 0.921875 "/></clipPath><clipPath id="52c731fdad"><path d="M 8.992188 0.921875 C 4.246094 0.921875 0.398438 4.769531 0.398438 9.515625 C 0.398438 14.261719 4.246094 18.109375 8.992188 18.109375 C 13.738281 18.109375 17.589844 14.261719 17.589844 9.515625 C 17.589844 4.769531 13.738281 0.921875 8.992188 0.921875 Z M 8.992188 0.921875 "/></clipPath><clipPath id="bb8a6a0b5f"><rect x="0" width="18" y="0" height="19"/></clipPath><clipPath id="35a9ff26b3"><path d="M 8 11 L 29.515625 11 L 29.515625 18 L 8 18 Z M 8 11 "/></clipPath><clipPath id="c5475c4f92"><path d="M 1 0.148438 L 21.515625 0.148438 L 21.515625 3 L 1 3 Z M 1 0.148438 "/></clipPath><clipPath id="75805d9aaa"><path d="M 1 4 L 15 4 L 15 6.652344 L 1 6.652344 Z M 1 4 "/></clipPath><clipPath id="cd6ac2fc02"><rect x="0" width="22" y="0" height="7"/></clipPath></defs><g id="d260e0b202"><g clip-rule="nonzero" clip-path="url(#af71277f00)"><g clip-rule="nonzero" clip-path="url(#a896d8829c)"><g transform="matrix(1,0,0,1,0,5)"><g clip-path="url(#bb8a6a0b5f)"><g clip-rule="nonzero" clip-path="url(#5acc0d6421)"><g clip-rule="nonzero" clip-path="url(#52c731fdad)"><path style=" stroke:none;fill-rule:nonzero;fill:#a81b2d;fill-opacity:1;" d="M 0.398438 0.921875 L 17.589844 0.921875 L 17.589844 18.109375 L 0.398438 18.109375 Z M 0.398438 0.921875 "/></g></g></g></g></g></g><g clip-rule="nonzero" clip-path="url(#35a9ff26b3)"><g transform="matrix(1,0,0,1,8,11)"><g clip-path="url(#cd6ac2fc02)"><g clip-rule="nonzero" clip-path="url(#c5475c4f92)"><g style="fill:#000000;fill-opacity:1;"><g transform="translate(0.992808, 2.447123)"><path style="stroke:none" d="M 1.578125 -1.5625 C 1.671875 -1.5625 1.75 -1.53125 1.8125 -1.46875 C 1.882812 -1.414062 1.941406 -1.351562 1.984375 -1.28125 C 2.035156 -1.207031 2.070312 -1.128906 2.09375 -1.046875 C 2.113281 -0.960938 2.125 -0.875 2.125 -0.78125 C 2.125 -0.664062 2.101562 -0.550781 2.0625 -0.4375 C 2.03125 -0.332031 1.972656 -0.234375 1.890625 -0.140625 C 1.804688 -0.0546875 1.703125 -0.0078125 1.578125 0 L 0.65625 0 C 0.539062 -0.0078125 0.441406 -0.0546875 0.359375 -0.140625 C 0.273438 -0.222656 0.210938 -0.320312 0.171875 -0.4375 C 0.140625 -0.550781 0.125 -0.664062 0.125 -0.78125 C 0.125 -0.894531 0.140625 -1.007812 0.171875 -1.125 C 0.210938 -1.238281 0.273438 -1.335938 0.359375 -1.421875 C 0.441406 -1.515625 0.539062 -1.5625 0.65625 -1.5625 Z M 1.5 -0.359375 C 1.5625 -0.359375 1.613281 -0.378906 1.65625 -0.421875 C 1.707031 -0.472656 1.738281 -0.53125 1.75 -0.59375 C 1.769531 -0.65625 1.78125 -0.71875 1.78125 -0.78125 C 1.78125 -0.84375 1.769531 -0.90625 1.75 -0.96875 C 1.726562 -1.03125 1.695312 -1.082031 1.65625 -1.125 C 1.613281 -1.175781 1.5625 -1.203125 1.5 -1.203125 L 0.75 -1.203125 C 0.675781 -1.203125 0.617188 -1.175781 0.578125 -1.125 C 0.535156 -1.082031 0.503906 -1.03125 0.484375 -0.96875 C 0.460938 -0.90625 0.453125 -0.84375 0.453125 -0.78125 C 0.453125 -0.71875 0.460938 -0.65625 0.484375 -0.59375 C 0.503906 -0.53125 0.535156 -0.472656 0.578125 -0.421875 C 0.617188 -0.378906 0.675781 -0.359375 0.75 -0.359375 Z M 1.5 -0.359375 "/></g><g transform="translate(3.23374, 2.447123)"><path style="stroke:none" d="M 0.71875 -1.640625 C 0.78125 -1.640625 0.84375 -1.628906 0.90625 -1.609375 C 0.96875 -1.585938 1.023438 -1.554688 1.078125 -1.515625 C 1.085938 -1.503906 1.097656 -1.492188 1.109375 -1.484375 C 1.117188 -1.492188 1.128906 -1.503906 1.140625 -1.515625 C 1.191406 -1.554688 1.242188 -1.585938 1.296875 -1.609375 C 1.359375 -1.628906 1.421875 -1.640625 1.484375 -1.640625 C 1.546875 -1.640625 1.601562 -1.628906 1.65625 -1.609375 C 1.71875 -1.585938 1.773438 -1.554688 1.828125 -1.515625 C 1.878906 -1.472656 1.925781 -1.414062 1.96875 -1.34375 C 2.007812 -1.269531 2.03125 -1.1875 2.03125 -1.09375 L 2.03125 -0.140625 C 2.019531 -0.0351562 1.960938 0.0195312 1.859375 0.03125 C 1.816406 0.03125 1.773438 0.015625 1.734375 -0.015625 C 1.703125 -0.0546875 1.6875 -0.0976562 1.6875 -0.140625 L 1.6875 -1.078125 C 1.6875 -1.117188 1.675781 -1.15625 1.65625 -1.1875 C 1.644531 -1.21875 1.628906 -1.238281 1.609375 -1.25 C 1.585938 -1.269531 1.566406 -1.28125 1.546875 -1.28125 C 1.523438 -1.289062 1.503906 -1.296875 1.484375 -1.296875 C 1.460938 -1.296875 1.441406 -1.289062 1.421875 -1.28125 C 1.398438 -1.28125 1.378906 -1.269531 1.359375 -1.25 C 1.335938 -1.238281 1.316406 -1.21875 1.296875 -1.1875 C 1.285156 -1.15625 1.28125 -1.117188 1.28125 -1.078125 L 1.28125 -0.140625 C 1.269531 -0.0351562 1.210938 0.0195312 1.109375 0.03125 C 1.054688 0.03125 1.007812 0.015625 0.96875 -0.015625 C 0.9375 -0.0546875 0.921875 -0.0976562 0.921875 -0.140625 L 0.921875 -1.078125 C 0.921875 -1.117188 0.910156 -1.15625 0.890625 -1.1875 C 0.878906 -1.21875 0.863281 -1.238281 0.84375 -1.25 C 0.820312 -1.269531 0.800781 -1.28125 0.78125 -1.28125 C 0.757812 -1.289062 0.738281 -1.296875 0.71875 -1.296875 C 0.695312 -1.296875 0.675781 -1.289062 0.65625 -1.28125 C 0.632812 -1.28125 0.613281 -1.269531 0.59375 -1.25 C 0.582031 -1.238281 0.566406 -1.21875 0.546875 -1.1875 C 0.535156 -1.15625 0.523438 -1.117188 0.515625 -1.078125 L 0.515625 -0.140625 C 0.515625 -0.0351562 0.457031 0.0195312 0.34375 0.03125 C 0.300781 0.03125 0.257812 0.015625 0.21875 -0.015625 C 0.1875 -0.0546875 0.171875 -0.0976562 0.171875 -0.140625 L 0.171875 -1.09375 C 0.171875 -1.1875 0.191406 -1.269531 0.234375 -1.34375 C 0.273438 -1.414062 0.320312 -1.472656 0.375 -1.515625 C 0.425781 -1.554688 0.484375 -1.585938 0.546875 -1.609375 C 0.609375 -1.628906 0.664062 -1.640625 0.71875 -1.640625 Z M 0.71875 -1.640625 "/></g><g transform="translate(5.435126, 2.447123)"><path style="stroke:none" d="M 1.578125 -1.5625 C 1.671875 -1.5625 1.75 -1.53125 1.8125 -1.46875 C 1.882812 -1.414062 1.941406 -1.351562 1.984375 -1.28125 C 2.035156 -1.207031 2.070312 -1.128906 2.09375 -1.046875 C 2.113281 -0.960938 2.125 -0.875 2.125 -0.78125 C 2.125 -0.664062 2.101562 -0.550781 2.0625 -0.4375 C 2.03125 -0.332031 1.972656 -0.234375 1.890625 -0.140625 C 1.804688 -0.0546875 1.703125 -0.0078125 1.578125 0 L 0.65625 0 C 0.539062 -0.0078125 0.441406 -0.0546875 0.359375 -0.140625 C 0.273438 -0.222656 0.210938 -0.320312 0.171875 -0.4375 C 0.140625 -0.550781 0.125 -0.664062 0.125 -0.78125 C 0.125 -0.894531 0.140625 -1.007812 0.171875 -1.125 C 0.210938 -1.238281 0.273438 -1.335938 0.359375 -1.421875 C 0.441406 -1.515625 0.539062 -1.5625 0.65625 -1.5625 Z M 1.5 -0.359375 C 1.5625 -0.359375 1.613281 -0.378906 1.65625 -0.421875 C 1.707031 -0.472656 1.738281 -0.53125 1.75 -0.59375 C 1.769531 -0.65625 1.78125 -0.71875 1.78125 -0.78125 C 1.78125 -0.84375 1.769531 -0.90625 1.75 -0.96875 C 1.726562 -1.03125 1.695312 -1.082031 1.65625 -1.125 C 1.613281 -1.175781 1.5625 -1.203125 1.5 -1.203125 L 0.75 -1.203125 C 0.675781 -1.203125 0.617188 -1.175781 0.578125 -1.125 C 0.535156 -1.082031 0.503906 -1.03125 0.484375 -0.96875 C 0.460938 -0.90625 0.453125 -0.84375 0.453125 -0.78125 C 0.453125 -0.71875 0.460938 -0.65625 0.484375 -0.59375 C 0.503906 -0.53125 0.535156 -0.472656 0.578125 -0.421875 C 0.617188 -0.378906 0.675781 -0.359375 0.75 -0.359375 Z M 1.5 -0.359375 "/></g><g transform="translate(7.676057, 2.447123)"><path style="stroke:none" d="M 0.109375 -1.390625 C 0.109375 -1.429688 0.125 -1.46875 0.15625 -1.5 C 0.195312 -1.539062 0.242188 -1.5625 0.296875 -1.5625 L 1.828125 -1.5625 C 1.878906 -1.5625 1.921875 -1.546875 1.953125 -1.515625 C 1.984375 -1.472656 2 -1.429688 2 -1.390625 C 2 -1.335938 1.984375 -1.289062 1.953125 -1.25 C 1.921875 -1.21875 1.878906 -1.203125 1.828125 -1.203125 L 1.234375 -1.203125 L 1.234375 -0.140625 C 1.222656 -0.0351562 1.164062 0.0195312 1.0625 0.03125 C 1.019531 0.03125 0.976562 0.015625 0.9375 -0.015625 C 0.90625 -0.046875 0.890625 -0.0859375 0.890625 -0.140625 L 0.890625 -1.203125 L 0.296875 -1.203125 C 0.242188 -1.203125 0.203125 -1.222656 0.171875 -1.265625 C 0.128906 -1.296875 0.109375 -1.335938 0.109375 -1.390625 Z M 0.109375 -1.390625 "/></g><g transform="translate(9.790442, 2.447123)"><path style="stroke:none" d="M 0.65625 -1.5625 L 1.671875 -1.5625 C 1.722656 -1.5625 1.765625 -1.539062 1.796875 -1.5 C 1.828125 -1.46875 1.84375 -1.425781 1.84375 -1.375 C 1.832031 -1.269531 1.773438 -1.210938 1.671875 -1.203125 L 0.75 -1.203125 C 0.675781 -1.203125 0.617188 -1.175781 0.578125 -1.125 C 0.535156 -1.082031 0.503906 -1.03125 0.484375 -0.96875 C 0.460938 -0.90625 0.453125 -0.84375 0.453125 -0.78125 C 0.453125 -0.71875 0.460938 -0.65625 0.484375 -0.59375 C 0.503906 -0.53125 0.535156 -0.472656 0.578125 -0.421875 C 0.617188 -0.378906 0.675781 -0.359375 0.75 -0.359375 L 1.671875 -0.359375 C 1.722656 -0.359375 1.765625 -0.335938 1.796875 -0.296875 C 1.828125 -0.265625 1.84375 -0.222656 1.84375 -0.171875 C 1.84375 -0.128906 1.828125 -0.09375 1.796875 -0.0625 C 1.765625 -0.03125 1.722656 -0.0078125 1.671875 0 L 0.65625 0 C 0.53125 -0.0078125 0.425781 -0.0546875 0.34375 -0.140625 C 0.269531 -0.234375 0.210938 -0.332031 0.171875 -0.4375 C 0.140625 -0.550781 0.125 -0.664062 0.125 -0.78125 C 0.125 -0.894531 0.140625 -1.007812 0.171875 -1.125 C 0.210938 -1.238281 0.269531 -1.335938 0.34375 -1.421875 C 0.425781 -1.503906 0.53125 -1.550781 0.65625 -1.5625 Z M 1.84375 -0.796875 C 1.84375 -0.742188 1.828125 -0.703125 1.796875 -0.671875 C 1.753906 -0.640625 1.710938 -0.625 1.671875 -0.625 L 0.875 -0.625 C 0.820312 -0.625 0.773438 -0.640625 0.734375 -0.671875 C 0.703125 -0.703125 0.6875 -0.742188 0.6875 -0.796875 C 0.6875 -0.847656 0.703125 -0.890625 0.734375 -0.921875 C 0.773438 -0.953125 0.820312 -0.96875 0.875 -0.96875 L 1.671875 -0.96875 C 1.710938 -0.96875 1.75 -0.953125 1.78125 -0.921875 C 1.820312 -0.890625 1.84375 -0.847656 1.84375 -0.796875 Z M 1.84375 -0.796875 "/></g><g transform="translate(11.733462, 2.447123)"><path style="stroke:none" d="M 1.015625 -1.640625 C 1.097656 -1.640625 1.179688 -1.628906 1.265625 -1.609375 C 1.359375 -1.585938 1.445312 -1.554688 1.53125 -1.515625 C 1.613281 -1.472656 1.6875 -1.414062 1.75 -1.34375 C 1.8125 -1.269531 1.84375 -1.1875 1.84375 -1.09375 L 1.84375 -0.140625 C 1.832031 -0.0351562 1.773438 0.0195312 1.671875 0.03125 C 1.628906 0.03125 1.585938 0.015625 1.546875 -0.015625 C 1.515625 -0.0546875 1.5 -0.0976562 1.5 -0.140625 L 1.5 -1.015625 C 1.488281 -1.066406 1.460938 -1.109375 1.421875 -1.140625 C 1.390625 -1.179688 1.347656 -1.210938 1.296875 -1.234375 C 1.253906 -1.253906 1.207031 -1.269531 1.15625 -1.28125 C 1.101562 -1.289062 1.054688 -1.296875 1.015625 -1.296875 C 0.960938 -1.296875 0.910156 -1.289062 0.859375 -1.28125 C 0.804688 -1.269531 0.753906 -1.253906 0.703125 -1.234375 C 0.660156 -1.210938 0.617188 -1.179688 0.578125 -1.140625 C 0.546875 -1.109375 0.523438 -1.066406 0.515625 -1.015625 L 0.515625 -0.140625 C 0.515625 -0.0351562 0.457031 0.0195312 0.34375 0.03125 C 0.300781 0.03125 0.257812 0.015625 0.21875 -0.015625 C 0.1875 -0.0546875 0.171875 -0.0976562 0.171875 -0.140625 L 0.171875 -1.09375 C 0.171875 -1.1875 0.203125 -1.269531 0.265625 -1.34375 C 0.328125 -1.414062 0.398438 -1.472656 0.484375 -1.515625 C 0.566406 -1.554688 0.648438 -1.585938 0.734375 -1.609375 C 0.828125 -1.628906 0.921875 -1.640625 1.015625 -1.640625 Z M 1.015625 -1.640625 "/></g><g transform="translate(13.747664, 2.447123)"><path style="stroke:none" d="M 0.765625 -0.421875 C 0.765625 -0.460938 0.78125 -0.5 0.8125 -0.53125 C 0.84375 -0.570312 0.882812 -0.59375 0.9375 -0.59375 L 1.34375 -0.59375 L 1.265625 -0.78125 C 1.242188 -0.851562 1.21875 -0.921875 1.1875 -0.984375 C 1.15625 -1.054688 1.125 -1.117188 1.09375 -1.171875 C 1.0625 -1.222656 1.023438 -1.25 0.984375 -1.25 C 0.941406 -1.25 0.90625 -1.222656 0.875 -1.171875 C 0.84375 -1.117188 0.8125 -1.054688 0.78125 -0.984375 C 0.75 -0.921875 0.722656 -0.851562 0.703125 -0.78125 L 0.453125 -0.09375 C 0.429688 -0.0625 0.40625 -0.03125 0.375 0 C 0.351562 0.0195312 0.316406 0.03125 0.265625 0.03125 C 0.210938 0.03125 0.164062 0.015625 0.125 -0.015625 C 0.09375 -0.0546875 0.0820312 -0.101562 0.09375 -0.15625 C 0.09375 -0.175781 0.0976562 -0.195312 0.109375 -0.21875 L 0.390625 -0.96875 C 0.472656 -1.164062 0.554688 -1.320312 0.640625 -1.4375 C 0.710938 -1.5625 0.828125 -1.625 0.984375 -1.625 C 1.140625 -1.625 1.253906 -1.5625 1.328125 -1.4375 C 1.410156 -1.320312 1.492188 -1.164062 1.578125 -0.96875 L 1.859375 -0.21875 C 1.867188 -0.195312 1.875 -0.175781 1.875 -0.15625 C 1.882812 -0.101562 1.875 -0.0546875 1.84375 -0.015625 C 1.8125 0.015625 1.769531 0.03125 1.71875 0.03125 C 1.65625 0.03125 1.609375 0.0195312 1.578125 0 C 1.554688 -0.03125 1.535156 -0.0625 1.515625 -0.09375 L 1.46875 -0.234375 L 0.9375 -0.234375 C 0.882812 -0.234375 0.84375 -0.253906 0.8125 -0.296875 C 0.78125 -0.328125 0.765625 -0.367188 0.765625 -0.421875 Z M 0.765625 -0.421875 "/></g><g transform="translate(15.724957, 2.447123)"><path style="stroke:none" d="M 1.875 -1.390625 C 1.875 -1.335938 1.859375 -1.296875 1.828125 -1.265625 C 1.785156 -1.222656 1.742188 -1.203125 1.703125 -1.203125 L 0.640625 -1.203125 C 0.609375 -1.203125 0.582031 -1.195312 0.5625 -1.1875 C 0.539062 -1.175781 0.523438 -1.160156 0.515625 -1.140625 C 0.503906 -1.117188 0.5 -1.101562 0.5 -1.09375 C 0.5 -1.070312 0.503906 -1.050781 0.515625 -1.03125 C 0.523438 -1.019531 0.539062 -1.003906 0.5625 -0.984375 C 0.582031 -0.972656 0.609375 -0.96875 0.640625 -0.96875 L 1.390625 -0.96875 C 1.515625 -0.96875 1.613281 -0.941406 1.6875 -0.890625 C 1.769531 -0.835938 1.828125 -0.773438 1.859375 -0.703125 C 1.898438 -0.628906 1.921875 -0.554688 1.921875 -0.484375 C 1.921875 -0.410156 1.898438 -0.335938 1.859375 -0.265625 C 1.828125 -0.203125 1.769531 -0.144531 1.6875 -0.09375 C 1.613281 -0.0390625 1.515625 -0.015625 1.390625 -0.015625 L 1.375 -0.015625 C 1.363281 -0.015625 1.351562 -0.015625 1.34375 -0.015625 L 0.34375 -0.015625 C 0.289062 -0.015625 0.25 -0.03125 0.21875 -0.0625 C 0.1875 -0.09375 0.171875 -0.132812 0.171875 -0.1875 C 0.171875 -0.238281 0.1875 -0.28125 0.21875 -0.3125 C 0.25 -0.34375 0.289062 -0.359375 0.34375 -0.359375 L 1.40625 -0.359375 C 1.4375 -0.359375 1.460938 -0.363281 1.484375 -0.375 C 1.503906 -0.394531 1.519531 -0.410156 1.53125 -0.421875 C 1.550781 -0.441406 1.5625 -0.460938 1.5625 -0.484375 C 1.5625 -0.492188 1.550781 -0.507812 1.53125 -0.53125 C 1.519531 -0.5625 1.503906 -0.582031 1.484375 -0.59375 C 1.460938 -0.601562 1.4375 -0.613281 1.40625 -0.625 L 0.65625 -0.625 C 0.53125 -0.625 0.425781 -0.648438 0.34375 -0.703125 C 0.269531 -0.753906 0.210938 -0.8125 0.171875 -0.875 C 0.140625 -0.945312 0.125 -1.019531 0.125 -1.09375 C 0.125 -1.15625 0.140625 -1.21875 0.171875 -1.28125 C 0.210938 -1.351562 0.269531 -1.414062 0.34375 -1.46875 C 0.425781 -1.53125 0.53125 -1.5625 0.65625 -1.5625 L 0.671875 -1.5625 C 0.679688 -1.5625 0.691406 -1.5625 0.703125 -1.5625 L 1.703125 -1.5625 C 1.742188 -1.5625 1.78125 -1.539062 1.8125 -1.5 C 1.851562 -1.46875 1.875 -1.429688 1.875 -1.390625 Z M 1.875 -1.390625 "/></g><g transform="translate(17.770795, 2.447123)"><path style="stroke:none" d="M 0.34375 -1.609375 C 0.394531 -1.609375 0.4375 -1.585938 0.46875 -1.546875 C 0.5 -1.515625 0.515625 -1.476562 0.515625 -1.4375 L 0.515625 -1 L 1.375 -1 L 1.375 -1.4375 C 1.382812 -1.476562 1.40625 -1.515625 1.4375 -1.546875 C 1.46875 -1.585938 1.507812 -1.609375 1.5625 -1.609375 C 1.613281 -1.609375 1.65625 -1.585938 1.6875 -1.546875 C 1.71875 -1.515625 1.734375 -1.476562 1.734375 -1.4375 L 1.734375 -0.140625 C 1.722656 -0.0351562 1.664062 0.0195312 1.5625 0.03125 C 1.507812 0.03125 1.460938 0.015625 1.421875 -0.015625 C 1.390625 -0.046875 1.375 -0.0859375 1.375 -0.140625 L 1.375 -0.640625 L 0.515625 -0.640625 L 0.515625 -0.140625 C 0.503906 -0.0351562 0.445312 0.0195312 0.34375 0.03125 C 0.300781 0.03125 0.257812 0.015625 0.21875 -0.015625 C 0.1875 -0.046875 0.171875 -0.0859375 0.171875 -0.140625 L 0.171875 -1.4375 C 0.171875 -1.476562 0.1875 -1.515625 0.21875 -1.546875 C 0.257812 -1.585938 0.300781 -1.609375 0.34375 -1.609375 Z M 0.34375 -1.609375 "/></g><g transform="translate(19.66636, 2.447123)"><path style="stroke:none" d="M 0.109375 -0.1875 C 0.109375 -0.226562 0.125 -0.265625 0.15625 -0.296875 C 0.195312 -0.335938 0.238281 -0.359375 0.28125 -0.359375 L 0.796875 -0.359375 L 0.796875 -1.203125 L 0.28125 -1.203125 C 0.238281 -1.203125 0.195312 -1.222656 0.15625 -1.265625 C 0.125 -1.296875 0.109375 -1.335938 0.109375 -1.390625 C 0.109375 -1.429688 0.125 -1.46875 0.15625 -1.5 C 0.195312 -1.539062 0.238281 -1.5625 0.28125 -1.5625 L 1.65625 -1.5625 C 1.707031 -1.5625 1.75 -1.546875 1.78125 -1.515625 C 1.8125 -1.472656 1.828125 -1.429688 1.828125 -1.390625 C 1.828125 -1.335938 1.8125 -1.289062 1.78125 -1.25 C 1.75 -1.21875 1.707031 -1.203125 1.65625 -1.203125 L 1.15625 -1.203125 L 1.15625 -0.359375 L 1.65625 -0.359375 C 1.707031 -0.359375 1.75 -0.34375 1.78125 -0.3125 C 1.8125 -0.269531 1.828125 -0.226562 1.828125 -0.1875 C 1.828125 -0.132812 1.8125 -0.0859375 1.78125 -0.046875 C 1.75 -0.015625 1.707031 0 1.65625 0 L 0.28125 0 C 0.238281 0 0.195312 -0.0195312 0.15625 -0.0625 C 0.125 -0.09375 0.109375 -0.132812 0.109375 -0.1875 Z M 0.109375 -0.1875 "/></g></g></g><g clip-rule="nonzero" clip-path="url(#75805d9aaa)"><g style="fill:#000000;fill-opacity:1;"><g transform="translate(0.992808, 6.046675)"><path style="stroke:none" d="M 0.765625 -0.421875 C 0.765625 -0.460938 0.78125 -0.5 0.8125 -0.53125 C 0.84375 -0.570312 0.882812 -0.59375 0.9375 -0.59375 L 1.34375 -0.59375 L 1.265625 -0.78125 C 1.242188 -0.851562 1.21875 -0.921875 1.1875 -0.984375 C 1.15625 -1.054688 1.125 -1.117188 1.09375 -1.171875 C 1.0625 -1.222656 1.023438 -1.25 0.984375 -1.25 C 0.941406 -1.25 0.90625 -1.222656 0.875 -1.171875 C 0.84375 -1.117188 0.8125 -1.054688 0.78125 -0.984375 C 0.75 -0.921875 0.722656 -0.851562 0.703125 -0.78125 L 0.453125 -0.09375 C 0.429688 -0.0625 0.40625 -0.03125 0.375 0 C 0.351562 0.0195312 0.316406 0.03125 0.265625 0.03125 C 0.210938 0.03125 0.164062 0.015625 0.125 -0.015625 C 0.09375 -0.0546875 0.0820312 -0.101562 0.09375 -0.15625 C 0.09375 -0.175781 0.0976562 -0.195312 0.109375 -0.21875 L 0.390625 -0.96875 C 0.472656 -1.164062 0.554688 -1.320312 0.640625 -1.4375 C 0.710938 -1.5625 0.828125 -1.625 0.984375 -1.625 C 1.140625 -1.625 1.253906 -1.5625 1.328125 -1.4375 C 1.410156 -1.320312 1.492188 -1.164062 1.578125 -0.96875 L 1.859375 -0.21875 C 1.867188 -0.195312 1.875 -0.175781 1.875 -0.15625 C 1.882812 -0.101562 1.875 -0.0546875 1.84375 -0.015625 C 1.8125 0.015625 1.769531 0.03125 1.71875 0.03125 C 1.65625 0.03125 1.609375 0.0195312 1.578125 0 C 1.554688 -0.03125 1.535156 -0.0625 1.515625 -0.09375 L 1.46875 -0.234375 L 0.9375 -0.234375 C 0.882812 -0.234375 0.84375 -0.253906 0.8125 -0.296875 C 0.78125 -0.328125 0.765625 -0.367188 0.765625 -0.421875 Z M 0.765625 -0.421875 "/></g><g transform="translate(2.970101, 6.046675)"><path style="stroke:none" d="M 0.765625 -1.203125 C 0.703125 -1.203125 0.644531 -1.175781 0.59375 -1.125 C 0.550781 -1.082031 0.519531 -1.03125 0.5 -0.96875 C 0.476562 -0.90625 0.46875 -0.84375 0.46875 -0.78125 C 0.46875 -0.71875 0.476562 -0.65625 0.5 -0.59375 C 0.519531 -0.53125 0.550781 -0.472656 0.59375 -0.421875 C 0.644531 -0.378906 0.703125 -0.359375 0.765625 -0.359375 L 1.640625 -0.359375 C 1.753906 -0.347656 1.816406 -0.285156 1.828125 -0.171875 C 1.816406 -0.128906 1.796875 -0.0859375 1.765625 -0.046875 C 1.734375 -0.015625 1.691406 0 1.640625 0 L 0.671875 0 C 0.546875 -0.0078125 0.441406 -0.0546875 0.359375 -0.140625 C 0.285156 -0.234375 0.234375 -0.332031 0.203125 -0.4375 C 0.171875 -0.550781 0.15625 -0.664062 0.15625 -0.78125 C 0.15625 -0.863281 0.160156 -0.945312 0.171875 -1.03125 C 0.191406 -1.125 0.222656 -1.207031 0.265625 -1.28125 C 0.304688 -1.351562 0.363281 -1.414062 0.4375 -1.46875 C 0.507812 -1.53125 0.585938 -1.5625 0.671875 -1.5625 L 1.640625 -1.5625 C 1.753906 -1.550781 1.816406 -1.488281 1.828125 -1.375 C 1.828125 -1.332031 1.804688 -1.289062 1.765625 -1.25 C 1.734375 -1.21875 1.691406 -1.203125 1.640625 -1.203125 Z M 0.765625 -1.203125 "/></g><g transform="translate(4.865665, 6.046675)"><path style="stroke:none" d="M 0.765625 -0.421875 C 0.765625 -0.460938 0.78125 -0.5 0.8125 -0.53125 C 0.84375 -0.570312 0.882812 -0.59375 0.9375 -0.59375 L 1.34375 -0.59375 L 1.265625 -0.78125 C 1.242188 -0.851562 1.21875 -0.921875 1.1875 -0.984375 C 1.15625 -1.054688 1.125 -1.117188 1.09375 -1.171875 C 1.0625 -1.222656 1.023438 -1.25 0.984375 -1.25 C 0.941406 -1.25 0.90625 -1.222656 0.875 -1.171875 C 0.84375 -1.117188 0.8125 -1.054688 0.78125 -0.984375 C 0.75 -0.921875 0.722656 -0.851562 0.703125 -0.78125 L 0.453125 -0.09375 C 0.429688 -0.0625 0.40625 -0.03125 0.375 0 C 0.351562 0.0195312 0.316406 0.03125 0.265625 0.03125 C 0.210938 0.03125 0.164062 0.015625 0.125 -0.015625 C 0.09375 -0.0546875 0.0820312 -0.101562 0.09375 -0.15625 C 0.09375 -0.175781 0.0976562 -0.195312 0.109375 -0.21875 L 0.390625 -0.96875 C 0.472656 -1.164062 0.554688 -1.320312 0.640625 -1.4375 C 0.710938 -1.5625 0.828125 -1.625 0.984375 -1.625 C 1.140625 -1.625 1.253906 -1.5625 1.328125 -1.4375 C 1.410156 -1.320312 1.492188 -1.164062 1.578125 -0.96875 L 1.859375 -0.21875 C 1.867188 -0.195312 1.875 -0.175781 1.875 -0.15625 C 1.882812 -0.101562 1.875 -0.0546875 1.84375 -0.015625 C 1.8125 0.015625 1.769531 0.03125 1.71875 0.03125 C 1.65625 0.03125 1.609375 0.0195312 1.578125 0 C 1.554688 -0.03125 1.535156 -0.0625 1.515625 -0.09375 L 1.46875 -0.234375 L 0.9375 -0.234375 C 0.882812 -0.234375 0.84375 -0.253906 0.8125 -0.296875 C 0.78125 -0.328125 0.765625 -0.367188 0.765625 -0.421875 Z M 0.765625 -0.421875 "/></g><g transform="translate(6.842958, 6.046675)"><path style="stroke:none" d="M 1.3125 -1.5625 C 1.4375 -1.550781 1.535156 -1.503906 1.609375 -1.421875 C 1.691406 -1.335938 1.75 -1.238281 1.78125 -1.125 C 1.820312 -1.007812 1.84375 -0.894531 1.84375 -0.78125 C 1.84375 -0.664062 1.820312 -0.550781 1.78125 -0.4375 C 1.75 -0.332031 1.691406 -0.234375 1.609375 -0.140625 C 1.535156 -0.0546875 1.4375 -0.0078125 1.3125 0 L 0.34375 0 C 0.289062 -0.0078125 0.25 -0.03125 0.21875 -0.0625 C 0.1875 -0.09375 0.171875 -0.128906 0.171875 -0.171875 L 0.171875 -0.828125 C 0.171875 -0.878906 0.1875 -0.921875 0.21875 -0.953125 C 0.257812 -0.984375 0.300781 -1 0.34375 -1 C 0.394531 -1 0.4375 -0.984375 0.46875 -0.953125 C 0.5 -0.921875 0.519531 -0.878906 0.53125 -0.828125 L 0.53125 -0.4375 C 0.53125 -0.382812 0.550781 -0.359375 0.59375 -0.359375 L 1.21875 -0.359375 C 1.289062 -0.359375 1.347656 -0.378906 1.390625 -0.421875 C 1.429688 -0.472656 1.460938 -0.53125 1.484375 -0.59375 C 1.503906 -0.65625 1.515625 -0.71875 1.515625 -0.78125 C 1.515625 -0.84375 1.503906 -0.90625 1.484375 -0.96875 C 1.460938 -1.03125 1.429688 -1.082031 1.390625 -1.125 C 1.347656 -1.175781 1.289062 -1.203125 1.21875 -1.203125 L 0.34375 -1.203125 C 0.238281 -1.210938 0.179688 -1.269531 0.171875 -1.375 C 0.171875 -1.425781 0.1875 -1.46875 0.21875 -1.5 C 0.25 -1.539062 0.289062 -1.5625 0.34375 -1.5625 Z M 1.3125 -1.5625 "/></g><g transform="translate(8.801796, 6.046675)"><path style="stroke:none" d="M 0.65625 -1.5625 L 1.671875 -1.5625 C 1.722656 -1.5625 1.765625 -1.539062 1.796875 -1.5 C 1.828125 -1.46875 1.84375 -1.425781 1.84375 -1.375 C 1.832031 -1.269531 1.773438 -1.210938 1.671875 -1.203125 L 0.75 -1.203125 C 0.675781 -1.203125 0.617188 -1.175781 0.578125 -1.125 C 0.535156 -1.082031 0.503906 -1.03125 0.484375 -0.96875 C 0.460938 -0.90625 0.453125 -0.84375 0.453125 -0.78125 C 0.453125 -0.71875 0.460938 -0.65625 0.484375 -0.59375 C 0.503906 -0.53125 0.535156 -0.472656 0.578125 -0.421875 C 0.617188 -0.378906 0.675781 -0.359375 0.75 -0.359375 L 1.671875 -0.359375 C 1.722656 -0.359375 1.765625 -0.335938 1.796875 -0.296875 C 1.828125 -0.265625 1.84375 -0.222656 1.84375 -0.171875 C 1.84375 -0.128906 1.828125 -0.09375 1.796875 -0.0625 C 1.765625 -0.03125 1.722656 -0.0078125 1.671875 0 L 0.65625 0 C 0.53125 -0.0078125 0.425781 -0.0546875 0.34375 -0.140625 C 0.269531 -0.234375 0.210938 -0.332031 0.171875 -0.4375 C 0.140625 -0.550781 0.125 -0.664062 0.125 -0.78125 C 0.125 -0.894531 0.140625 -1.007812 0.171875 -1.125 C 0.210938 -1.238281 0.269531 -1.335938 0.34375 -1.421875 C 0.425781 -1.503906 0.53125 -1.550781 0.65625 -1.5625 Z M 1.84375 -0.796875 C 1.84375 -0.742188 1.828125 -0.703125 1.796875 -0.671875 C 1.753906 -0.640625 1.710938 -0.625 1.671875 -0.625 L 0.875 -0.625 C 0.820312 -0.625 0.773438 -0.640625 0.734375 -0.671875 C 0.703125 -0.703125 0.6875 -0.742188 0.6875 -0.796875 C 0.6875 -0.847656 0.703125 -0.890625 0.734375 -0.921875 C 0.773438 -0.953125 0.820312 -0.96875 0.875 -0.96875 L 1.671875 -0.96875 C 1.710938 -0.96875 1.75 -0.953125 1.78125 -0.921875 C 1.820312 -0.890625 1.84375 -0.847656 1.84375 -0.796875 Z M 1.84375 -0.796875 "/></g><g transform="translate(10.744816, 6.046675)"><path style="stroke:none" d="M 0.71875 -1.640625 C 0.78125 -1.640625 0.84375 -1.628906 0.90625 -1.609375 C 0.96875 -1.585938 1.023438 -1.554688 1.078125 -1.515625 C 1.085938 -1.503906 1.097656 -1.492188 1.109375 -1.484375 C 1.117188 -1.492188 1.128906 -1.503906 1.140625 -1.515625 C 1.191406 -1.554688 1.242188 -1.585938 1.296875 -1.609375 C 1.359375 -1.628906 1.421875 -1.640625 1.484375 -1.640625 C 1.546875 -1.640625 1.601562 -1.628906 1.65625 -1.609375 C 1.71875 -1.585938 1.773438 -1.554688 1.828125 -1.515625 C 1.878906 -1.472656 1.925781 -1.414062 1.96875 -1.34375 C 2.007812 -1.269531 2.03125 -1.1875 2.03125 -1.09375 L 2.03125 -0.140625 C 2.019531 -0.0351562 1.960938 0.0195312 1.859375 0.03125 C 1.816406 0.03125 1.773438 0.015625 1.734375 -0.015625 C 1.703125 -0.0546875 1.6875 -0.0976562 1.6875 -0.140625 L 1.6875 -1.078125 C 1.6875 -1.117188 1.675781 -1.15625 1.65625 -1.1875 C 1.644531 -1.21875 1.628906 -1.238281 1.609375 -1.25 C 1.585938 -1.269531 1.566406 -1.28125 1.546875 -1.28125 C 1.523438 -1.289062 1.503906 -1.296875 1.484375 -1.296875 C 1.460938 -1.296875 1.441406 -1.289062 1.421875 -1.28125 C 1.398438 -1.28125 1.378906 -1.269531 1.359375 -1.25 C 1.335938 -1.238281 1.316406 -1.21875 1.296875 -1.1875 C 1.285156 -1.15625 1.28125 -1.117188 1.28125 -1.078125 L 1.28125 -0.140625 C 1.269531 -0.0351562 1.210938 0.0195312 1.109375 0.03125 C 1.054688 0.03125 1.007812 0.015625 0.96875 -0.015625 C 0.9375 -0.0546875 0.921875 -0.0976562 0.921875 -0.140625 L 0.921875 -1.078125 C 0.921875 -1.117188 0.910156 -1.15625 0.890625 -1.1875 C 0.878906 -1.21875 0.863281 -1.238281 0.84375 -1.25 C 0.820312 -1.269531 0.800781 -1.28125 0.78125 -1.28125 C 0.757812 -1.289062 0.738281 -1.296875 0.71875 -1.296875 C 0.695312 -1.296875 0.675781 -1.289062 0.65625 -1.28125 C 0.632812 -1.28125 0.613281 -1.269531 0.59375 -1.25 C 0.582031 -1.238281 0.566406 -1.21875 0.546875 -1.1875 C 0.535156 -1.15625 0.523438 -1.117188 0.515625 -1.078125 L 0.515625 -0.140625 C 0.515625 -0.0351562 0.457031 0.0195312 0.34375 0.03125 C 0.300781 0.03125 0.257812 0.015625 0.21875 -0.015625 C 0.1875 -0.0546875 0.171875 -0.0976562 0.171875 -0.140625 L 0.171875 -1.09375 C 0.171875 -1.1875 0.191406 -1.269531 0.234375 -1.34375 C 0.273438 -1.414062 0.320312 -1.472656 0.375 -1.515625 C 0.425781 -1.554688 0.484375 -1.585938 0.546875 -1.609375 C 0.609375 -1.628906 0.664062 -1.640625 0.71875 -1.640625 Z M 0.71875 -1.640625 "/></g><g transform="translate(12.946201, 6.046675)"><path style="stroke:none" d="M 0.34375 -1.609375 C 0.394531 -1.609375 0.4375 -1.585938 0.46875 -1.546875 C 0.5 -1.515625 0.519531 -1.476562 0.53125 -1.4375 L 0.53125 -1.390625 C 0.519531 -1.316406 0.519531 -1.25 0.53125 -1.1875 C 0.550781 -1.125 0.582031 -1.066406 0.625 -1.015625 C 0.664062 -0.972656 0.722656 -0.945312 0.796875 -0.9375 L 1.53125 -0.9375 L 1.53125 -1.421875 C 1.53125 -1.472656 1.546875 -1.515625 1.578125 -1.546875 C 1.617188 -1.578125 1.664062 -1.59375 1.71875 -1.59375 C 1.820312 -1.59375 1.878906 -1.535156 1.890625 -1.421875 L 1.890625 -0.8125 C 1.890625 -0.675781 1.867188 -0.546875 1.828125 -0.421875 C 1.796875 -0.304688 1.738281 -0.207031 1.65625 -0.125 C 1.570312 -0.0507812 1.472656 -0.015625 1.359375 -0.015625 L 0.40625 -0.015625 C 0.351562 -0.015625 0.3125 -0.03125 0.28125 -0.0625 C 0.25 -0.09375 0.234375 -0.132812 0.234375 -0.1875 C 0.234375 -0.226562 0.25 -0.265625 0.28125 -0.296875 C 0.3125 -0.335938 0.351562 -0.359375 0.40625 -0.359375 L 1.265625 -0.359375 C 1.328125 -0.367188 1.378906 -0.394531 1.421875 -0.4375 C 1.460938 -0.476562 1.492188 -0.53125 1.515625 -0.59375 L 0.703125 -0.59375 C 0.578125 -0.601562 0.472656 -0.644531 0.390625 -0.71875 C 0.316406 -0.789062 0.257812 -0.882812 0.21875 -1 C 0.1875 -1.113281 0.171875 -1.234375 0.171875 -1.359375 L 0.171875 -1.4375 C 0.171875 -1.476562 0.1875 -1.515625 0.21875 -1.546875 C 0.25 -1.585938 0.289062 -1.609375 0.34375 -1.609375 Z M 0.34375 -1.609375 "/></g></g></g></g></g></g></g></svg>