<svg xmlns="http://www.w3.org/2000/svg" xmlns:xlink="http://www.w3.org/1999/xlink" width="915" zoomAndPan="magnify" viewBox="0 0 686.25 686.250002" height="915" preserveAspectRatio="xMidYMid meet" version="1.2"><defs><clipPath id="7d804e28ab"><path d="M 0 140.984375 L 403.535156 140.984375 L 403.535156 544.515625 L 0 544.515625 Z M 0 140.984375 "/></clipPath><clipPath id="5831c8543c"><path d="M 201.765625 140.984375 C 90.335938 140.984375 0 231.316406 0 342.75 C 0 454.183594 90.335938 544.515625 201.765625 544.515625 C 313.199219 544.515625 403.535156 454.183594 403.535156 342.75 C 403.535156 231.316406 313.199219 140.984375 201.765625 140.984375 Z M 201.765625 140.984375 "/></clipPath><clipPath id="fd779df15e"><path d="M 0 0.984375 L 403.535156 0.984375 L 403.535156 404.515625 L 0 404.515625 Z M 0 0.984375 "/></clipPath><clipPath id="04c70a4774"><path d="M 201.765625 0.984375 C 90.335938 0.984375 0 91.316406 0 202.75 C 0 314.183594 90.335938 404.515625 201.765625 404.515625 C 313.199219 404.515625 403.535156 314.183594 403.535156 202.75 C 403.535156 91.316406 313.199219 0.984375 201.765625 0.984375 Z M 201.765625 0.984375 "/></clipPath><clipPath id="9ce635380c"><rect x="0" width="404" y="0" height="405"/></clipPath><clipPath id="332ead26ec"><path d="M 201 266 L 685.5 266 L 685.5 419 L 201 419 Z M 201 266 "/></clipPath><clipPath id="6fd2ca7113"><rect x="0" width="485" y="0" height="153"/></clipPath></defs><g id="e963225d5b"><g clip-rule="nonzero" clip-path="url(#7d804e28ab)"><g clip-rule="nonzero" clip-path="url(#5831c8543c)"><g transform="matrix(1,0,0,1,0,140)"><g clip-path="url(#9ce635380c)"><g clip-rule="nonzero" clip-path="url(#fd779df15e)"><g clip-rule="nonzero" clip-path="url(#04c70a4774)"><path style=" stroke:none;fill-rule:nonzero;fill:#a81b2d;fill-opacity:1;" d="M 0 0.984375 L 403.535156 0.984375 L 403.535156 404.515625 L 0 404.515625 Z M 0 0.984375 "/></g></g></g></g></g></g><g clip-rule="nonzero" clip-path="url(#332ead26ec)"><g transform="matrix(1,0,0,1,201,266)"><g clip-path="url(#6fd2ca7113)"><g style="fill:#000000;fill-opacity:1;"><g transform="translate(0.766991, 54.162948)"><path style="stroke:none" d="M 37.140625 -36.640625 C 39.242188 -36.597656 41.117188 -35.9375 42.765625 -34.65625 C 44.410156 -33.375 45.738281 -31.847656 46.75 -30.078125 C 47.769531 -28.304688 48.523438 -26.425781 49.015625 -24.4375 C 49.515625 -22.457031 49.765625 -20.4375 49.765625 -18.375 C 49.765625 -15.65625 49.335938 -12.984375 48.484375 -10.359375 C 47.640625 -7.742188 46.257812 -5.425781 44.34375 -3.40625 C 42.425781 -1.382812 40.023438 -0.289062 37.140625 -0.125 L 15.53125 -0.125 C 12.644531 -0.25 10.234375 -1.320312 8.296875 -3.34375 C 6.359375 -5.363281 4.984375 -7.691406 4.171875 -10.328125 C 3.367188 -12.972656 2.96875 -15.65625 2.96875 -18.375 C 2.96875 -21.101562 3.378906 -23.773438 4.203125 -26.390625 C 5.035156 -29.015625 6.410156 -31.347656 8.328125 -33.390625 C 10.242188 -35.429688 12.644531 -36.515625 15.53125 -36.640625 Z M 35.03125 -8.421875 C 36.59375 -8.503906 37.898438 -9.09375 38.953125 -10.1875 C 40.003906 -11.28125 40.757812 -12.546875 41.21875 -13.984375 C 41.675781 -15.429688 41.90625 -16.894531 41.90625 -18.375 C 41.90625 -19.863281 41.664062 -21.316406 41.1875 -22.734375 C 40.707031 -24.160156 39.953125 -25.429688 38.921875 -26.546875 C 37.890625 -27.660156 36.59375 -28.257812 35.03125 -28.34375 L 17.453125 -28.34375 C 15.878906 -28.257812 14.578125 -27.660156 13.546875 -26.546875 C 12.515625 -25.429688 11.757812 -24.160156 11.28125 -22.734375 C 10.8125 -21.316406 10.578125 -19.863281 10.578125 -18.375 C 10.578125 -16.894531 10.800781 -15.429688 11.25 -13.984375 C 11.707031 -12.546875 12.460938 -11.28125 13.515625 -10.1875 C 14.566406 -9.09375 15.878906 -8.503906 17.453125 -8.421875 Z M 35.03125 -8.421875 "/></g></g><g style="fill:#000000;fill-opacity:1;"><g transform="translate(53.365329, 54.162948)"><path style="stroke:none" d="M 17.015625 -38.3125 C 18.460938 -38.3125 19.875 -38.0625 21.25 -37.5625 C 22.632812 -37.070312 23.96875 -36.351562 25.25 -35.40625 C 25.457031 -35.195312 25.6875 -34.988281 25.9375 -34.78125 C 26.132812 -34.988281 26.359375 -35.195312 26.609375 -35.40625 C 27.890625 -36.351562 29.21875 -37.070312 30.59375 -37.5625 C 31.976562 -38.0625 33.375 -38.3125 34.78125 -38.3125 C 36.226562 -38.3125 37.640625 -38.0625 39.015625 -37.5625 C 40.398438 -37.070312 41.722656 -36.34375 42.984375 -35.375 C 44.242188 -34.40625 45.359375 -33.113281 46.328125 -31.5 C 47.296875 -29.894531 47.78125 -27.976562 47.78125 -25.75 L 47.78125 -3.40625 C 47.53125 -0.925781 46.164062 0.414062 43.6875 0.625 C 42.539062 0.625 41.539062 0.242188 40.6875 -0.515625 C 39.84375 -1.285156 39.421875 -2.25 39.421875 -3.40625 L 39.421875 -25.25 C 39.421875 -26.238281 39.234375 -27.070312 38.859375 -27.75 C 38.492188 -28.4375 38.082031 -28.972656 37.625 -29.359375 C 37.175781 -29.753906 36.703125 -30.046875 36.203125 -30.234375 C 35.710938 -30.421875 35.21875 -30.515625 34.71875 -30.515625 C 34.226562 -30.515625 33.742188 -30.421875 33.265625 -30.234375 C 32.785156 -30.046875 32.316406 -29.753906 31.859375 -29.359375 C 31.410156 -28.972656 31 -28.4375 30.625 -27.75 C 30.257812 -27.070312 30.054688 -26.238281 30.015625 -25.25 L 30.015625 -3.40625 C 29.765625 -0.925781 28.40625 0.414062 25.9375 0.625 C 24.78125 0.625 23.773438 0.242188 22.921875 -0.515625 C 22.078125 -1.285156 21.65625 -2.25 21.65625 -3.40625 L 21.65625 -25.25 C 21.65625 -26.238281 21.46875 -27.070312 21.09375 -27.75 C 20.726562 -28.4375 20.316406 -28.972656 19.859375 -29.359375 C 19.410156 -29.753906 18.9375 -30.046875 18.4375 -30.234375 C 17.945312 -30.421875 17.453125 -30.515625 16.953125 -30.515625 C 16.460938 -30.515625 15.976562 -30.421875 15.5 -30.234375 C 15.03125 -30.046875 14.566406 -29.753906 14.109375 -29.359375 C 13.660156 -28.972656 13.25 -28.4375 12.875 -27.75 C 12.5 -27.070312 12.289062 -26.238281 12.25 -25.25 L 12.25 -3.40625 C 12.039062 -0.925781 10.703125 0.414062 8.234375 0.625 C 7.078125 0.625 6.078125 0.242188 5.234375 -0.515625 C 4.390625 -1.285156 3.96875 -2.25 3.96875 -3.40625 L 3.96875 -25.75 C 4.039062 -27.976562 4.550781 -29.894531 5.5 -31.5 C 6.457031 -33.113281 7.570312 -34.40625 8.84375 -35.375 C 10.125 -36.34375 11.457031 -37.070312 12.84375 -37.5625 C 14.226562 -38.0625 15.617188 -38.3125 17.015625 -38.3125 Z M 17.015625 -38.3125 "/></g></g><g style="fill:#000000;fill-opacity:1;"><g transform="translate(105.035461, 54.162948)"><path style="stroke:none" d="M 37.140625 -36.640625 C 39.242188 -36.597656 41.117188 -35.9375 42.765625 -34.65625 C 44.410156 -33.375 45.738281 -31.847656 46.75 -30.078125 C 47.769531 -28.304688 48.523438 -26.425781 49.015625 -24.4375 C 49.515625 -22.457031 49.765625 -20.4375 49.765625 -18.375 C 49.765625 -15.65625 49.335938 -12.984375 48.484375 -10.359375 C 47.640625 -7.742188 46.257812 -5.425781 44.34375 -3.40625 C 42.425781 -1.382812 40.023438 -0.289062 37.140625 -0.125 L 15.53125 -0.125 C 12.644531 -0.25 10.234375 -1.320312 8.296875 -3.34375 C 6.359375 -5.363281 4.984375 -7.691406 4.171875 -10.328125 C 3.367188 -12.972656 2.96875 -15.65625 2.96875 -18.375 C 2.96875 -21.101562 3.378906 -23.773438 4.203125 -26.390625 C 5.035156 -29.015625 6.410156 -31.347656 8.328125 -33.390625 C 10.242188 -35.429688 12.644531 -36.515625 15.53125 -36.640625 Z M 35.03125 -8.421875 C 36.59375 -8.503906 37.898438 -9.09375 38.953125 -10.1875 C 40.003906 -11.28125 40.757812 -12.546875 41.21875 -13.984375 C 41.675781 -15.429688 41.90625 -16.894531 41.90625 -18.375 C 41.90625 -19.863281 41.664062 -21.316406 41.1875 -22.734375 C 40.707031 -24.160156 39.953125 -25.429688 38.921875 -26.546875 C 37.890625 -27.660156 36.59375 -28.257812 35.03125 -28.34375 L 17.453125 -28.34375 C 15.878906 -28.257812 14.578125 -27.660156 13.546875 -26.546875 C 12.515625 -25.429688 11.757812 -24.160156 11.28125 -22.734375 C 10.8125 -21.316406 10.578125 -19.863281 10.578125 -18.375 C 10.578125 -16.894531 10.800781 -15.429688 11.25 -13.984375 C 11.707031 -12.546875 12.460938 -11.28125 13.515625 -10.1875 C 14.566406 -9.09375 15.878906 -8.503906 17.453125 -8.421875 Z M 35.03125 -8.421875 "/></g></g><g style="fill:#000000;fill-opacity:1;"><g transform="translate(157.633799, 54.162948)"><path style="stroke:none" d="M 2.71875 -32.484375 C 2.71875 -33.640625 3.117188 -34.617188 3.921875 -35.421875 C 4.734375 -36.234375 5.71875 -36.640625 6.875 -36.640625 L 42.890625 -36.640625 C 44.046875 -36.640625 45.035156 -36.25 45.859375 -35.46875 C 46.640625 -34.632812 47.03125 -33.640625 47.03125 -32.484375 C 47.03125 -31.335938 46.628906 -30.359375 45.828125 -29.546875 C 45.023438 -28.742188 44.046875 -28.34375 42.890625 -28.34375 L 29.09375 -28.34375 L 29.09375 -3.28125 C 28.84375 -0.800781 27.476562 0.539062 25 0.75 C 23.84375 0.75 22.84375 0.367188 22 -0.390625 C 21.15625 -1.160156 20.734375 -2.125 20.734375 -3.28125 L 20.734375 -28.34375 L 6.875 -28.34375 C 5.71875 -28.34375 4.75 -28.753906 3.96875 -29.578125 C 3.132812 -30.367188 2.71875 -31.335938 2.71875 -32.484375 Z M 2.71875 -32.484375 "/></g></g><g style="fill:#000000;fill-opacity:1;"><g transform="translate(207.261877, 54.162948)"><path style="stroke:none" d="M 15.40625 -36.640625 L 39.296875 -36.640625 C 40.453125 -36.597656 41.410156 -36.160156 42.171875 -35.328125 C 42.941406 -34.503906 43.328125 -33.519531 43.328125 -32.375 C 43.117188 -29.894531 41.773438 -28.550781 39.296875 -28.34375 L 17.515625 -28.34375 C 15.941406 -28.257812 14.640625 -27.660156 13.609375 -26.546875 C 12.578125 -25.429688 11.820312 -24.160156 11.34375 -22.734375 C 10.875 -21.316406 10.640625 -19.863281 10.640625 -18.375 C 10.640625 -16.894531 10.875 -15.441406 11.34375 -14.015625 C 11.820312 -12.597656 12.578125 -11.332031 13.609375 -10.21875 C 14.640625 -9.101562 15.941406 -8.503906 17.515625 -8.421875 L 39.296875 -8.421875 C 40.453125 -8.378906 41.410156 -7.941406 42.171875 -7.109375 C 42.941406 -6.285156 43.328125 -5.296875 43.328125 -4.140625 C 43.285156 -3.023438 42.878906 -2.085938 42.109375 -1.328125 C 41.347656 -0.566406 40.410156 -0.164062 39.296875 -0.125 L 15.40625 -0.125 C 12.519531 -0.289062 10.140625 -1.394531 8.265625 -3.4375 C 6.390625 -5.476562 5.046875 -7.796875 4.234375 -10.390625 C 3.429688 -12.992188 3.03125 -15.65625 3.03125 -18.375 C 3.03125 -21.101562 3.441406 -23.765625 4.265625 -26.359375 C 5.097656 -28.960938 6.441406 -31.285156 8.296875 -33.328125 C 10.148438 -35.367188 12.519531 -36.472656 15.40625 -36.640625 Z M 43.203125 -18.625 C 43.203125 -17.46875 42.789062 -16.5 41.96875 -15.71875 C 41.175781 -14.894531 40.203125 -14.484375 39.046875 -14.484375 L 20.359375 -14.484375 C 19.203125 -14.484375 18.222656 -14.882812 17.421875 -15.6875 C 16.617188 -16.488281 16.21875 -17.46875 16.21875 -18.625 C 16.21875 -19.78125 16.609375 -20.769531 17.390625 -21.59375 C 18.210938 -22.382812 19.203125 -22.78125 20.359375 -22.78125 L 39.046875 -22.78125 C 40.203125 -22.78125 41.179688 -22.375 41.984375 -21.5625 C 42.796875 -20.757812 43.203125 -19.78125 43.203125 -18.625 Z M 43.203125 -18.625 "/></g></g><g style="fill:#000000;fill-opacity:1;"><g transform="translate(252.86773, 54.162948)"><path style="stroke:none" d="M 23.640625 -38.3125 C 25.785156 -38.3125 27.898438 -38.0625 29.984375 -37.5625 C 32.066406 -37.070312 34.054688 -36.34375 35.953125 -35.375 C 37.859375 -34.40625 39.539062 -33.113281 41 -31.5 C 42.46875 -29.894531 43.265625 -27.976562 43.390625 -25.75 L 43.390625 -3.40625 C 43.140625 -0.925781 41.773438 0.414062 39.296875 0.625 C 38.140625 0.625 37.140625 0.242188 36.296875 -0.515625 C 35.453125 -1.285156 35.03125 -2.25 35.03125 -3.40625 L 35.03125 -23.828125 C 34.945312 -25.109375 34.460938 -26.171875 33.578125 -27.015625 C 32.691406 -27.859375 31.703125 -28.523438 30.609375 -29.015625 C 29.515625 -29.515625 28.378906 -29.890625 27.203125 -30.140625 C 26.023438 -30.390625 24.835938 -30.515625 23.640625 -30.515625 C 22.441406 -30.515625 21.253906 -30.390625 20.078125 -30.140625 C 18.898438 -29.890625 17.765625 -29.515625 16.671875 -29.015625 C 15.585938 -28.523438 14.597656 -27.859375 13.703125 -27.015625 C 12.816406 -26.171875 12.332031 -25.109375 12.25 -23.828125 L 12.25 -3.40625 C 12.039062 -0.925781 10.703125 0.414062 8.234375 0.625 C 7.078125 0.625 6.078125 0.242188 5.234375 -0.515625 C 4.390625 -1.285156 3.96875 -2.25 3.96875 -3.40625 L 3.96875 -25.75 C 4.082031 -27.976562 4.863281 -29.894531 6.3125 -31.5 C 7.757812 -33.113281 9.429688 -34.40625 11.328125 -35.375 C 13.222656 -36.34375 15.210938 -37.070312 17.296875 -37.5625 C 19.378906 -38.0625 21.492188 -38.3125 23.640625 -38.3125 Z M 23.640625 -38.3125 "/></g></g><g style="fill:#000000;fill-opacity:1;"><g transform="translate(300.144353, 54.162948)"><path style="stroke:none" d="M 17.828125 -9.71875 C 17.828125 -10.875 18.226562 -11.851562 19.03125 -12.65625 C 19.832031 -13.457031 20.8125 -13.859375 21.96875 -13.859375 L 31.4375 -13.859375 L 29.828125 -18.4375 C 29.171875 -20.132812 28.519531 -21.734375 27.875 -23.234375 C 27.238281 -24.742188 26.507812 -26.117188 25.6875 -27.359375 C 24.9375 -28.597656 24.085938 -29.253906 23.140625 -29.328125 C 22.148438 -29.253906 21.265625 -28.597656 20.484375 -27.359375 C 19.703125 -26.117188 18.988281 -24.742188 18.34375 -23.234375 C 17.707031 -21.734375 17.0625 -20.132812 16.40625 -18.4375 L 10.515625 -2.359375 C 10.109375 -1.484375 9.582031 -0.765625 8.9375 -0.203125 C 8.300781 0.347656 7.34375 0.625 6.0625 0.625 C 4.863281 0.625 3.882812 0.210938 3.125 -0.609375 C 2.363281 -1.441406 2.023438 -2.4375 2.109375 -3.59375 C 2.148438 -4.125 2.269531 -4.617188 2.46875 -5.078125 L 9.28125 -22.65625 C 11.175781 -27.269531 13.078125 -31.003906 14.984375 -33.859375 C 16.835938 -36.660156 19.554688 -38.082031 23.140625 -38.125 C 26.691406 -38.082031 29.40625 -36.664062 31.28125 -33.875 C 33.15625 -31.09375 35.046875 -27.351562 36.953125 -22.65625 L 43.75 -5.078125 C 43.957031 -4.617188 44.082031 -4.125 44.125 -3.59375 C 44.207031 -2.4375 43.867188 -1.441406 43.109375 -0.609375 C 42.347656 0.210938 41.367188 0.625 40.171875 0.625 C 38.804688 0.625 37.800781 0.347656 37.15625 -0.203125 C 36.519531 -0.765625 36 -1.484375 35.59375 -2.359375 L 34.40625 -5.5625 L 21.96875 -5.5625 C 20.8125 -5.5625 19.84375 -5.976562 19.0625 -6.8125 C 18.238281 -7.59375 17.828125 -8.5625 17.828125 -9.71875 Z M 17.828125 -9.71875 "/></g></g><g style="fill:#000000;fill-opacity:1;"><g transform="translate(346.554652, 54.162948)"><path style="stroke:none" d="M 43.9375 -32.484375 C 43.9375 -31.335938 43.523438 -30.367188 42.703125 -29.578125 C 41.921875 -28.753906 40.953125 -28.34375 39.796875 -28.34375 L 15.046875 -28.34375 C 14.253906 -28.300781 13.597656 -28.125 13.078125 -27.8125 C 12.566406 -27.507812 12.1875 -27.160156 11.9375 -26.765625 C 11.695312 -26.367188 11.578125 -25.96875 11.578125 -25.5625 C 11.578125 -25.144531 11.695312 -24.738281 11.9375 -24.34375 C 12.1875 -23.957031 12.566406 -23.609375 13.078125 -23.296875 C 13.597656 -22.992188 14.253906 -22.820312 15.046875 -22.78125 L 32.609375 -22.78125 C 35.503906 -22.695312 37.890625 -22.023438 39.765625 -20.765625 C 41.640625 -19.503906 42.976562 -18.054688 43.78125 -16.421875 C 44.59375 -14.796875 45 -13.140625 45 -11.453125 C 45 -9.796875 44.582031 -8.148438 43.75 -6.515625 C 42.925781 -4.890625 41.585938 -3.445312 39.734375 -2.1875 C 37.878906 -0.9375 35.503906 -0.3125 32.609375 -0.3125 L 32.25 -0.3125 C 32 -0.269531 31.75 -0.25 31.5 -0.25 L 8.109375 -0.25 C 6.953125 -0.25 5.972656 -0.648438 5.171875 -1.453125 C 4.367188 -2.253906 3.96875 -3.234375 3.96875 -4.390625 C 3.96875 -5.546875 4.378906 -6.515625 5.203125 -7.296875 C 5.984375 -8.128906 6.953125 -8.546875 8.109375 -8.546875 L 32.984375 -8.546875 C 33.765625 -8.503906 34.410156 -8.644531 34.921875 -8.96875 C 35.441406 -9.300781 35.828125 -9.679688 36.078125 -10.109375 C 36.328125 -10.546875 36.453125 -10.992188 36.453125 -11.453125 C 36.453125 -11.742188 36.328125 -12.144531 36.078125 -12.65625 C 35.828125 -13.175781 35.441406 -13.597656 34.921875 -13.921875 C 34.410156 -14.253906 33.765625 -14.441406 32.984375 -14.484375 L 15.40625 -14.484375 C 12.519531 -14.566406 10.140625 -15.222656 8.265625 -16.453125 C 6.390625 -17.691406 5.046875 -19.101562 4.234375 -20.6875 C 3.429688 -22.28125 3.03125 -23.90625 3.03125 -25.5625 C 3.03125 -27.164062 3.441406 -28.757812 4.265625 -30.34375 C 5.097656 -31.9375 6.441406 -33.351562 8.296875 -34.59375 C 10.148438 -35.832031 12.519531 -36.492188 15.40625 -36.578125 L 15.78125 -36.578125 C 16.03125 -36.617188 16.28125 -36.640625 16.53125 -36.640625 L 39.796875 -36.640625 C 40.953125 -36.640625 41.929688 -36.234375 42.734375 -35.421875 C 43.535156 -34.617188 43.9375 -33.640625 43.9375 -32.484375 Z M 43.9375 -32.484375 "/></g></g><g style="fill:#000000;fill-opacity:1;"><g transform="translate(394.57384, 54.162948)"><path style="stroke:none" d="M 8.171875 -37.625 C 9.285156 -37.582031 10.234375 -37.179688 11.015625 -36.421875 C 11.796875 -35.660156 12.207031 -34.722656 12.25 -33.609375 L 12.25 -23.265625 L 32.375 -23.265625 L 32.375 -33.609375 C 32.414062 -34.765625 32.847656 -35.722656 33.671875 -36.484375 C 34.492188 -37.242188 35.484375 -37.625 36.640625 -37.625 C 37.753906 -37.582031 38.703125 -37.179688 39.484375 -36.421875 C 40.265625 -35.660156 40.675781 -34.722656 40.71875 -33.609375 L 40.71875 -3.28125 C 40.476562 -0.800781 39.117188 0.539062 36.640625 0.75 C 35.484375 0.75 34.484375 0.367188 33.640625 -0.390625 C 32.796875 -1.160156 32.375 -2.125 32.375 -3.28125 L 32.375 -14.984375 L 12.25 -14.984375 L 12.25 -3.28125 C 12.007812 -0.800781 10.648438 0.539062 8.171875 0.75 C 7.015625 0.75 6.015625 0.367188 5.171875 -0.390625 C 4.328125 -1.160156 3.90625 -2.125 3.90625 -3.28125 L 3.90625 -33.609375 C 3.945312 -34.765625 4.378906 -35.722656 5.203125 -36.484375 C 6.023438 -37.242188 7.015625 -37.625 8.171875 -37.625 Z M 8.171875 -37.625 "/></g></g><g style="fill:#000000;fill-opacity:1;"><g transform="translate(439.06586, 54.162948)"><path style="stroke:none" d="M 2.59375 -4.265625 C 2.59375 -5.421875 2.992188 -6.398438 3.796875 -7.203125 C 4.609375 -8.015625 5.59375 -8.421875 6.75 -8.421875 L 18.625 -8.421875 L 18.625 -28.34375 L 6.75 -28.34375 C 5.59375 -28.34375 4.625 -28.753906 3.84375 -29.578125 C 3.007812 -30.367188 2.59375 -31.335938 2.59375 -32.484375 C 2.59375 -33.640625 2.992188 -34.617188 3.796875 -35.421875 C 4.609375 -36.234375 5.59375 -36.640625 6.75 -36.640625 L 38.8125 -36.640625 C 39.957031 -36.640625 40.945312 -36.25 41.78125 -35.46875 C 42.5625 -34.632812 42.953125 -33.640625 42.953125 -32.484375 C 42.953125 -31.335938 42.546875 -30.359375 41.734375 -29.546875 C 40.929688 -28.742188 39.957031 -28.34375 38.8125 -28.34375 L 26.984375 -28.34375 L 26.984375 -8.421875 L 38.8125 -8.421875 C 39.957031 -8.421875 40.945312 -8.023438 41.78125 -7.234375 C 42.5625 -6.410156 42.953125 -5.421875 42.953125 -4.265625 C 42.953125 -3.109375 42.546875 -2.128906 41.734375 -1.328125 C 40.929688 -0.523438 39.957031 -0.125 38.8125 -0.125 L 6.75 -0.125 C 5.59375 -0.125 4.625 -0.535156 3.84375 -1.359375 C 3.007812 -2.140625 2.59375 -3.109375 2.59375 -4.265625 Z M 2.59375 -4.265625 "/></g></g><g style="fill:#000000;fill-opacity:1;"><g transform="translate(0.766991, 142.630576)"><path style="stroke:none" d="M 17.828125 -9.71875 C 17.828125 -10.875 18.226562 -11.851562 19.03125 -12.65625 C 19.832031 -13.457031 20.8125 -13.859375 21.96875 -13.859375 L 31.4375 -13.859375 L 29.828125 -18.4375 C 29.171875 -20.132812 28.519531 -21.734375 27.875 -23.234375 C 27.238281 -24.742188 26.507812 -26.117188 25.6875 -27.359375 C 24.9375 -28.597656 24.085938 -29.253906 23.140625 -29.328125 C 22.148438 -29.253906 21.265625 -28.597656 20.484375 -27.359375 C 19.703125 -26.117188 18.988281 -24.742188 18.34375 -23.234375 C 17.707031 -21.734375 17.0625 -20.132812 16.40625 -18.4375 L 10.515625 -2.359375 C 10.109375 -1.484375 9.582031 -0.765625 8.9375 -0.203125 C 8.300781 0.347656 7.34375 0.625 6.0625 0.625 C 4.863281 0.625 3.882812 0.210938 3.125 -0.609375 C 2.363281 -1.441406 2.023438 -2.4375 2.109375 -3.59375 C 2.148438 -4.125 2.269531 -4.617188 2.46875 -5.078125 L 9.28125 -22.65625 C 11.175781 -27.269531 13.078125 -31.003906 14.984375 -33.859375 C 16.835938 -36.660156 19.554688 -38.082031 23.140625 -38.125 C 26.691406 -38.082031 29.40625 -36.664062 31.28125 -33.875 C 33.15625 -31.09375 35.046875 -27.351562 36.953125 -22.65625 L 43.75 -5.078125 C 43.957031 -4.617188 44.082031 -4.125 44.125 -3.59375 C 44.207031 -2.4375 43.867188 -1.441406 43.109375 -0.609375 C 42.347656 0.210938 41.367188 0.625 40.171875 0.625 C 38.804688 0.625 37.800781 0.347656 37.15625 -0.203125 C 36.519531 -0.765625 36 -1.484375 35.59375 -2.359375 L 34.40625 -5.5625 L 21.96875 -5.5625 C 20.8125 -5.5625 19.84375 -5.976562 19.0625 -6.8125 C 18.238281 -7.59375 17.828125 -8.5625 17.828125 -9.71875 Z M 17.828125 -9.71875 "/></g></g><g style="fill:#000000;fill-opacity:1;"><g transform="translate(47.177289, 142.630576)"><path style="stroke:none" d="M 18.015625 -28.34375 C 16.441406 -28.257812 15.128906 -27.660156 14.078125 -26.546875 C 13.023438 -25.429688 12.269531 -24.160156 11.8125 -22.734375 C 11.363281 -21.316406 11.140625 -19.863281 11.140625 -18.375 C 11.140625 -16.894531 11.351562 -15.429688 11.78125 -13.984375 C 12.21875 -12.546875 12.972656 -11.28125 14.046875 -10.1875 C 15.117188 -9.09375 16.441406 -8.503906 18.015625 -8.421875 L 38.4375 -8.421875 C 41.03125 -8.171875 42.453125 -6.742188 42.703125 -4.140625 C 42.660156 -2.984375 42.226562 -2.023438 41.40625 -1.265625 C 40.582031 -0.503906 39.59375 -0.125 38.4375 -0.125 L 15.84375 -0.125 C 12.957031 -0.289062 10.582031 -1.394531 8.71875 -3.4375 C 6.863281 -5.476562 5.535156 -7.796875 4.734375 -10.390625 C 3.929688 -12.992188 3.53125 -15.65625 3.53125 -18.375 C 3.53125 -20.394531 3.753906 -22.394531 4.203125 -24.375 C 4.660156 -26.363281 5.375 -28.253906 6.34375 -30.046875 C 7.3125 -31.835938 8.609375 -33.375 10.234375 -34.65625 C 11.867188 -35.9375 13.738281 -36.597656 15.84375 -36.640625 L 38.4375 -36.640625 C 41.03125 -36.390625 42.453125 -34.96875 42.703125 -32.375 C 42.703125 -31.21875 42.28125 -30.253906 41.4375 -29.484375 C 40.59375 -28.722656 39.59375 -28.34375 38.4375 -28.34375 Z M 18.015625 -28.34375 "/></g></g><g style="fill:#000000;fill-opacity:1;"><g transform="translate(91.669295, 142.630576)"><path style="stroke:none" d="M 17.828125 -9.71875 C 17.828125 -10.875 18.226562 -11.851562 19.03125 -12.65625 C 19.832031 -13.457031 20.8125 -13.859375 21.96875 -13.859375 L 31.4375 -13.859375 L 29.828125 -18.4375 C 29.171875 -20.132812 28.519531 -21.734375 27.875 -23.234375 C 27.238281 -24.742188 26.507812 -26.117188 25.6875 -27.359375 C 24.9375 -28.597656 24.085938 -29.253906 23.140625 -29.328125 C 22.148438 -29.253906 21.265625 -28.597656 20.484375 -27.359375 C 19.703125 -26.117188 18.988281 -24.742188 18.34375 -23.234375 C 17.707031 -21.734375 17.0625 -20.132812 16.40625 -18.4375 L 10.515625 -2.359375 C 10.109375 -1.484375 9.582031 -0.765625 8.9375 -0.203125 C 8.300781 0.347656 7.34375 0.625 6.0625 0.625 C 4.863281 0.625 3.882812 0.210938 3.125 -0.609375 C 2.363281 -1.441406 2.023438 -2.4375 2.109375 -3.59375 C 2.148438 -4.125 2.269531 -4.617188 2.46875 -5.078125 L 9.28125 -22.65625 C 11.175781 -27.269531 13.078125 -31.003906 14.984375 -33.859375 C 16.835938 -36.660156 19.554688 -38.082031 23.140625 -38.125 C 26.691406 -38.082031 29.40625 -36.664062 31.28125 -33.875 C 33.15625 -31.09375 35.046875 -27.351562 36.953125 -22.65625 L 43.75 -5.078125 C 43.957031 -4.617188 44.082031 -4.125 44.125 -3.59375 C 44.207031 -2.4375 43.867188 -1.441406 43.109375 -0.609375 C 42.347656 0.210938 41.367188 0.625 40.171875 0.625 C 38.804688 0.625 37.800781 0.347656 37.15625 -0.203125 C 36.519531 -0.765625 36 -1.484375 35.59375 -2.359375 L 34.40625 -5.5625 L 21.96875 -5.5625 C 20.8125 -5.5625 19.84375 -5.976562 19.0625 -6.8125 C 18.238281 -7.59375 17.828125 -8.5625 17.828125 -9.71875 Z M 17.828125 -9.71875 "/></g></g><g style="fill:#000000;fill-opacity:1;"><g transform="translate(138.079594, 142.630576)"><path style="stroke:none" d="M 30.765625 -36.640625 C 33.648438 -36.472656 36.019531 -35.367188 37.875 -33.328125 C 39.726562 -31.285156 41.066406 -28.960938 41.890625 -26.359375 C 42.722656 -23.765625 43.140625 -21.101562 43.140625 -18.375 C 43.140625 -15.65625 42.734375 -12.992188 41.921875 -10.390625 C 41.117188 -7.796875 39.78125 -5.476562 37.90625 -3.4375 C 36.03125 -1.394531 33.648438 -0.289062 30.765625 -0.125 L 7.984375 -0.125 C 6.867188 -0.164062 5.925781 -0.566406 5.15625 -1.328125 C 4.394531 -2.085938 4 -3.023438 3.96875 -4.140625 L 3.96875 -19.5 C 4 -20.65625 4.425781 -21.613281 5.25 -22.375 C 6.082031 -23.132812 7.078125 -23.515625 8.234375 -23.515625 C 9.347656 -23.472656 10.296875 -23.070312 11.078125 -22.3125 C 11.859375 -21.550781 12.269531 -20.613281 12.3125 -19.5 L 12.3125 -10.09375 C 12.3125 -8.976562 12.890625 -8.421875 14.046875 -8.421875 L 28.65625 -8.421875 C 30.21875 -8.503906 31.515625 -9.101562 32.546875 -10.21875 C 33.578125 -11.332031 34.332031 -12.597656 34.8125 -14.015625 C 35.289062 -15.441406 35.53125 -16.894531 35.53125 -18.375 C 35.53125 -19.863281 35.289062 -21.316406 34.8125 -22.734375 C 34.332031 -24.160156 33.578125 -25.429688 32.546875 -26.546875 C 31.515625 -27.660156 30.21875 -28.257812 28.65625 -28.34375 L 7.984375 -28.34375 C 5.503906 -28.550781 4.164062 -29.894531 3.96875 -32.375 C 3.96875 -33.519531 4.347656 -34.503906 5.109375 -35.328125 C 5.867188 -36.160156 6.828125 -36.597656 7.984375 -36.640625 Z M 30.765625 -36.640625 "/></g></g><g style="fill:#000000;fill-opacity:1;"><g transform="translate(184.056729, 142.630576)"><path style="stroke:none" d="M 15.40625 -36.640625 L 39.296875 -36.640625 C 40.453125 -36.597656 41.410156 -36.160156 42.171875 -35.328125 C 42.941406 -34.503906 43.328125 -33.519531 43.328125 -32.375 C 43.117188 -29.894531 41.773438 -28.550781 39.296875 -28.34375 L 17.515625 -28.34375 C 15.941406 -28.257812 14.640625 -27.660156 13.609375 -26.546875 C 12.578125 -25.429688 11.820312 -24.160156 11.34375 -22.734375 C 10.875 -21.316406 10.640625 -19.863281 10.640625 -18.375 C 10.640625 -16.894531 10.875 -15.441406 11.34375 -14.015625 C 11.820312 -12.597656 12.578125 -11.332031 13.609375 -10.21875 C 14.640625 -9.101562 15.941406 -8.503906 17.515625 -8.421875 L 39.296875 -8.421875 C 40.453125 -8.378906 41.410156 -7.941406 42.171875 -7.109375 C 42.941406 -6.285156 43.328125 -5.296875 43.328125 -4.140625 C 43.285156 -3.023438 42.878906 -2.085938 42.109375 -1.328125 C 41.347656 -0.566406 40.410156 -0.164062 39.296875 -0.125 L 15.40625 -0.125 C 12.519531 -0.289062 10.140625 -1.394531 8.265625 -3.4375 C 6.390625 -5.476562 5.046875 -7.796875 4.234375 -10.390625 C 3.429688 -12.992188 3.03125 -15.65625 3.03125 -18.375 C 3.03125 -21.101562 3.441406 -23.765625 4.265625 -26.359375 C 5.097656 -28.960938 6.441406 -31.285156 8.296875 -33.328125 C 10.148438 -35.367188 12.519531 -36.472656 15.40625 -36.640625 Z M 43.203125 -18.625 C 43.203125 -17.46875 42.789062 -16.5 41.96875 -15.71875 C 41.175781 -14.894531 40.203125 -14.484375 39.046875 -14.484375 L 20.359375 -14.484375 C 19.203125 -14.484375 18.222656 -14.882812 17.421875 -15.6875 C 16.617188 -16.488281 16.21875 -17.46875 16.21875 -18.625 C 16.21875 -19.78125 16.609375 -20.769531 17.390625 -21.59375 C 18.210938 -22.382812 19.203125 -22.78125 20.359375 -22.78125 L 39.046875 -22.78125 C 40.203125 -22.78125 41.179688 -22.375 41.984375 -21.5625 C 42.796875 -20.757812 43.203125 -19.78125 43.203125 -18.625 Z M 43.203125 -18.625 "/></g></g><g style="fill:#000000;fill-opacity:1;"><g transform="translate(229.662582, 142.630576)"><path style="stroke:none" d="M 17.015625 -38.3125 C 18.460938 -38.3125 19.875 -38.0625 21.25 -37.5625 C 22.632812 -37.070312 23.96875 -36.351562 25.25 -35.40625 C 25.457031 -35.195312 25.6875 -34.988281 25.9375 -34.78125 C 26.132812 -34.988281 26.359375 -35.195312 26.609375 -35.40625 C 27.890625 -36.351562 29.21875 -37.070312 30.59375 -37.5625 C 31.976562 -38.0625 33.375 -38.3125 34.78125 -38.3125 C 36.226562 -38.3125 37.640625 -38.0625 39.015625 -37.5625 C 40.398438 -37.070312 41.722656 -36.34375 42.984375 -35.375 C 44.242188 -34.40625 45.359375 -33.113281 46.328125 -31.5 C 47.296875 -29.894531 47.78125 -27.976562 47.78125 -25.75 L 47.78125 -3.40625 C 47.53125 -0.925781 46.164062 0.414062 43.6875 0.625 C 42.539062 0.625 41.539062 0.242188 40.6875 -0.515625 C 39.84375 -1.285156 39.421875 -2.25 39.421875 -3.40625 L 39.421875 -25.25 C 39.421875 -26.238281 39.234375 -27.070312 38.859375 -27.75 C 38.492188 -28.4375 38.082031 -28.972656 37.625 -29.359375 C 37.175781 -29.753906 36.703125 -30.046875 36.203125 -30.234375 C 35.710938 -30.421875 35.21875 -30.515625 34.71875 -30.515625 C 34.226562 -30.515625 33.742188 -30.421875 33.265625 -30.234375 C 32.785156 -30.046875 32.316406 -29.753906 31.859375 -29.359375 C 31.410156 -28.972656 31 -28.4375 30.625 -27.75 C 30.257812 -27.070312 30.054688 -26.238281 30.015625 -25.25 L 30.015625 -3.40625 C 29.765625 -0.925781 28.40625 0.414062 25.9375 0.625 C 24.78125 0.625 23.773438 0.242188 22.921875 -0.515625 C 22.078125 -1.285156 21.65625 -2.25 21.65625 -3.40625 L 21.65625 -25.25 C 21.65625 -26.238281 21.46875 -27.070312 21.09375 -27.75 C 20.726562 -28.4375 20.316406 -28.972656 19.859375 -29.359375 C 19.410156 -29.753906 18.9375 -30.046875 18.4375 -30.234375 C 17.945312 -30.421875 17.453125 -30.515625 16.953125 -30.515625 C 16.460938 -30.515625 15.976562 -30.421875 15.5 -30.234375 C 15.03125 -30.046875 14.566406 -29.753906 14.109375 -29.359375 C 13.660156 -28.972656 13.25 -28.4375 12.875 -27.75 C 12.5 -27.070312 12.289062 -26.238281 12.25 -25.25 L 12.25 -3.40625 C 12.039062 -0.925781 10.703125 0.414062 8.234375 0.625 C 7.078125 0.625 6.078125 0.242188 5.234375 -0.515625 C 4.390625 -1.285156 3.96875 -2.25 3.96875 -3.40625 L 3.96875 -25.75 C 4.039062 -27.976562 4.550781 -29.894531 5.5 -31.5 C 6.457031 -33.113281 7.570312 -34.40625 8.84375 -35.375 C 10.125 -36.34375 11.457031 -37.070312 12.84375 -37.5625 C 14.226562 -38.0625 15.617188 -38.3125 17.015625 -38.3125 Z M 17.015625 -38.3125 "/></g></g><g style="fill:#000000;fill-opacity:1;"><g transform="translate(281.332714, 142.630576)"><path style="stroke:none" d="M 8.046875 -37.625 C 9.203125 -37.625 10.191406 -37.242188 11.015625 -36.484375 C 11.835938 -35.722656 12.269531 -34.765625 12.3125 -33.609375 L 12.3125 -32.4375 C 12.269531 -30.738281 12.382812 -29.175781 12.65625 -27.75 C 12.925781 -26.332031 13.578125 -25.066406 14.609375 -23.953125 C 15.640625 -22.835938 16.9375 -22.238281 18.5 -22.15625 L 35.890625 -22.15625 L 35.890625 -33.484375 C 35.890625 -34.640625 36.3125 -35.597656 37.15625 -36.359375 C 38.007812 -37.117188 39.015625 -37.5 40.171875 -37.5 C 42.640625 -37.300781 44 -35.960938 44.25 -33.484375 L 44.25 -19.125 C 44.25 -15.820312 43.796875 -12.707031 42.890625 -9.78125 C 42.066406 -7.175781 40.710938 -4.976562 38.828125 -3.1875 C 36.953125 -1.394531 34.570312 -0.414062 31.6875 -0.25 L 9.40625 -0.25 C 8.289062 -0.289062 7.351562 -0.691406 6.59375 -1.453125 C 5.832031 -2.210938 5.429688 -3.148438 5.390625 -4.265625 C 5.390625 -5.421875 5.769531 -6.410156 6.53125 -7.234375 C 7.289062 -8.066406 8.25 -8.503906 9.40625 -8.546875 L 29.578125 -8.546875 C 31.148438 -8.628906 32.453125 -9.222656 33.484375 -10.328125 C 34.429688 -11.367188 35.070312 -12.546875 35.40625 -13.859375 L 16.40625 -13.859375 C 13.507812 -14.023438 11.125 -15.003906 9.25 -16.796875 C 7.375 -18.597656 6.023438 -20.796875 5.203125 -23.390625 C 4.410156 -25.992188 4 -28.757812 3.96875 -31.6875 L 3.96875 -33.609375 C 4 -34.722656 4.40625 -35.660156 5.1875 -36.421875 C 5.976562 -37.179688 6.929688 -37.582031 8.046875 -37.625 Z M 8.046875 -37.625 "/></g></g></g></g></g></g></svg>